<svg width="60" height="60" viewBox="0 0 60 60" fill="none" xmlns="http://www.w3.org/2000/svg">
<mask id="mask0_2_169" style="mask-type:alpha" maskUnits="userSpaceOnUse" x="0" y="0" width="60" height="60">
<circle cx="30" cy="30" r="30" fill="white"/>
</mask>
<g mask="url(#mask0_2_169)">
<circle cx="30" cy="30" r="30" fill="white"/>
<path d="M30 60C46.5685 60 60 46.5687 60 30.0001C60 13.4315 46.5685 0 30 0C13.4314 0 0 13.4315 0 30.0001C0 46.5687 13.4314 60 30 60Z" fill="white"/>
<path d="M53.2354 11.25C51.1541 11.6616 49.1694 12.2427 47.5357 12.6058C43.8085 13.4411 40.3232 16.2981 39.5609 21.5278C38.8832 26.2005 40.4563 28.2103 39.7665 33.6456C38.5565 43.1367 29.4563 46.4051 25.2087 48.3906C22.752 49.5284 16.786 52.1434 12.1875 54.1409C17.1733 57.8209 23.3208 60 29.9888 60C46.5676 60 60 46.5625 60 29.9776C60 22.9079 57.5556 16.4071 53.4652 11.2863C53.3927 11.2742 53.3202 11.2621 53.2354 11.25Z" fill="url(#paint0_linear_2_169)"/>
<path d="M26.6099 25.6121C28.9191 20.6131 28.0849 20.601 29.8379 15.9046C32.0504 9.94948 38.9295 11.644 40.8276 11.8982C43.9589 12.3219 44.7812 11.2083 51.3822 10.1431C51.7085 10.0947 52.0228 10.0463 52.3374 10.01C46.8485 3.87327 38.869 0 29.983 0C18.0503 0 7.74964 6.9719 2.92577 17.0787C12.8153 19.5358 23.4907 24.8737 26.6099 25.6121ZM20.0572 5.22893C20.9277 5.36206 25.159 10.6273 25.9571 24.1475C25.9571 24.1475 20.5166 22.8402 19.3439 20.0321C18.3767 17.7203 19.634 14.6821 20.0572 5.22893ZM53.389 11.2688C53.4013 11.293 53.4253 11.3051 53.4375 11.3293C53.3648 11.3172 53.2803 11.3172 53.2076 11.3051C53.2681 11.2809 53.3286 11.2809 53.389 11.2688ZM0 30.018C0 27.6213 0.278068 25.2974 0.810024 23.0702C1.89812 23.978 3.05874 24.9826 4.29192 26.1326C12.102 33.3827 24.8085 39.1079 29.4388 33.7822C29.4511 33.7942 29.4631 33.7942 29.4631 33.8065C28.6168 34.9199 25.3889 38.4423 19.223 37.3529L9.47848 51.9141C3.65116 46.443 0 38.6601 0 30.018Z" fill="url(#paint1_linear_2_169)"/>
</g>
<defs>
<linearGradient id="paint0_linear_2_169" x1="48.0119" y1="19.1132" x2="40.9267" y2="58.1327" gradientUnits="userSpaceOnUse">
<stop stop-color="#FF496A"/>
<stop offset="1" stop-color="#E42648"/>
</linearGradient>
<linearGradient id="paint1_linear_2_169" x1="14.4719" y1="44.2182" x2="30.1441" y2="0.0114718" gradientUnits="userSpaceOnUse">
<stop offset="0.00181229" stop-color="#1158F1"/>
<stop offset="1" stop-color="#119BED"/>
</linearGradient>
</defs>
</svg>
