<svg width="60" height="60" viewBox="0 0 60 60" fill="none" xmlns="http://www.w3.org/2000/svg">
<mask id="mask0_2_145" style="mask-type:alpha" maskUnits="userSpaceOnUse" x="0" y="0" width="60" height="60">
<circle cx="30" cy="30" r="30" fill="white"/>
</mask>
<g mask="url(#mask0_2_145)">
<circle cx="30" cy="30" r="30" fill="white"/>
<path d="M30 60C46.5685 60 60 46.5685 60 30C60 13.4314 46.5685 0 30 0C13.4314 0 0 13.4314 0 30C0 46.5685 13.4314 60 30 60Z" fill="url(#paint0_linear_2_145)"/>
<path fill-rule="evenodd" clip-rule="evenodd" d="M10.5138 33.2738L10.5062 33.6115C10.5062 34.0384 10.5435 34.4605 10.6159 34.8756H10.5062V35.5296C10.5062 35.8468 10.5267 36.1635 10.5676 36.478C11.3621 42.5813 19.7586 47.3833 30 47.3833C40.2415 47.3833 48.6388 42.5813 49.4333 36.478C49.474 36.1635 49.4945 35.8468 49.4945 35.5296V34.8756H49.3848C49.4573 34.4605 49.4945 34.0384 49.4945 33.6115C49.4945 33.4984 49.4917 33.3857 49.487 33.2738C49.1925 26.884 40.5807 21.7586 30 21.7586C19.4193 21.7586 10.8076 26.8833 10.5138 33.2738ZM8.91245 33.2738C9.05728 29.3751 11.7028 26.1001 15.3856 23.861C19.2028 21.5403 24.3738 20.1562 30 20.1562C35.6262 20.1562 40.798 21.5396 44.6145 23.861C48.2973 26.1001 50.9428 29.3751 51.0878 33.2738H51.0938V35.5296C51.0938 39.577 48.4028 42.9769 44.6145 45.2802C40.798 47.6016 35.627 48.9844 30 48.9844C24.3731 48.9844 19.2028 47.6009 15.3856 45.2802C11.5973 42.9769 8.90625 39.577 8.90625 35.5296V33.2738H8.91245Z" fill="#606063"/>
<path d="M49.4531 35.5068C49.4531 42.0447 40.744 47.3438 30.0004 47.3438C19.2568 47.3438 10.5469 42.0439 10.5469 35.5068V33.6328H49.4531V35.5068Z" fill="#BEBEBE"/>
<path d="M49.4531 33.6325C49.4531 40.1696 40.744 45.4688 30.0004 45.4688C19.2568 45.4688 10.5469 40.1696 10.5469 33.6325C10.5469 27.0954 19.2561 21.7969 30.0004 21.7969C40.7445 21.7969 49.4531 27.0962 49.4531 33.6333V33.6325Z" fill="#F5F3F3"/>
<path fill-rule="evenodd" clip-rule="evenodd" d="M13.5501 30.307V30.3291C13.5501 30.8673 13.6279 31.3951 13.7774 31.9071H13.5501V32.6007C13.5501 32.9068 13.5749 33.2092 13.6245 33.5071C14.3661 38.01 20.575 41.5242 28.1238 41.5242C35.6728 41.5242 41.8817 38.0093 42.6241 33.5071C42.673 33.2092 42.6985 32.9063 42.6985 32.6007V31.9071H42.4713C42.6173 31.4088 42.694 30.8926 42.6985 30.3733V30.307C42.6792 25.3887 36.161 21.4055 28.1246 21.4055C20.0881 21.4055 13.5701 25.3887 13.5501 30.307ZM11.9531 30.307V32.6012C11.9531 35.8337 14.0872 38.5013 16.9865 40.2766C19.9132 42.0685 23.8557 43.125 28.1246 43.125C32.3936 43.125 36.336 42.0685 39.2635 40.2766C42.1627 38.5013 44.2961 35.8337 44.2961 32.6012V30.3796L44.2969 30.3298C44.2969 27.0972 42.1627 24.4297 39.2635 22.6537C36.3368 20.8618 32.3943 19.8047 28.1253 19.8047C23.8564 19.8047 19.9139 20.8611 16.9865 22.6537C14.0934 24.4248 11.9635 27.0847 11.9538 30.307H11.9531Z" fill="#612F01"/>
<path d="M42.6562 32.5622C42.6562 37.4897 36.1243 41.4844 28.0667 41.4844C20.0092 41.4844 13.4766 37.4897 13.4766 32.5622V30.4688H42.6562V32.5622Z" fill="#FEDC90"/>
<path d="M42.6562 30.3515C42.6562 35.2702 36.1243 39.2578 28.0667 39.2578C20.0092 39.2578 13.4766 35.2709 13.4766 30.3515C13.4766 25.4323 20.0092 21.4453 28.0667 21.4453C36.1243 21.4453 42.6562 25.4331 42.6562 30.3515Z" fill="#D1884F"/>
<path fill-rule="evenodd" clip-rule="evenodd" d="M17.8926 25.5025V25.5245C17.8926 26.0628 17.9707 26.5905 18.1206 27.1025H17.8919V27.7959C17.8919 28.1023 17.9174 28.4044 17.9665 28.7026C18.7116 33.2055 24.9431 36.7195 32.5194 36.7195C40.0959 36.7195 46.3275 33.2055 47.0726 28.7026C47.1217 28.4044 47.1473 28.1015 47.1473 27.7959V27.1025H46.9193C47.0658 26.6043 47.1428 26.0881 47.1473 25.5685V25.5025C47.1272 20.5841 40.586 16.6008 32.5194 16.6008C24.453 16.6008 17.9119 20.5841 17.8926 25.5025ZM16.2891 25.5025V27.7966C16.2891 31.0292 18.4303 33.6968 21.3408 35.4722C24.2782 37.264 28.2344 38.3203 32.5194 38.3203C36.8048 38.3203 40.7609 37.264 43.6983 35.4722C46.6088 33.6968 48.75 31.0292 48.75 27.7966V25.5253C48.75 22.2926 46.6088 19.625 43.699 17.849C40.7609 16.0564 36.8048 15 32.5194 15C28.2344 15 24.2782 16.0564 21.3408 17.849C18.4372 19.6202 16.2994 22.2801 16.2891 25.5025Z" fill="#612F01"/>
<path d="M47.1094 27.7576C47.1094 32.685 40.5774 36.6797 32.5198 36.6797C24.4623 36.6797 17.9297 32.685 17.9297 27.7576V25.6641H47.1094V27.7576Z" fill="#FEDC90"/>
<path d="M47.1094 25.5469C47.1094 30.4655 40.5774 34.4531 32.5198 34.4531C24.4623 34.4531 17.9297 30.4655 17.9297 25.5469C17.9297 20.6283 24.4616 16.6406 32.5198 16.6406C40.5782 16.6406 47.1094 20.6283 47.1094 25.5469Z" fill="#D1884F"/>
<path fill-rule="evenodd" clip-rule="evenodd" d="M13.5501 20.6969V20.719C13.5501 21.2579 13.6279 21.785 13.7774 22.297H13.5501V22.9904C13.5501 23.2968 13.5749 23.599 13.6245 23.8971C14.3661 28.3999 20.575 31.9141 28.1238 31.9141C35.6728 31.9141 41.8817 28.3999 42.6241 23.8971C42.673 23.599 42.6985 23.2961 42.6985 22.9904V22.297H42.4713C42.6173 21.7987 42.694 21.2825 42.6985 20.7632V20.6969C42.6792 15.7787 36.161 11.7954 28.1246 11.7954C20.0881 11.7954 13.5701 15.7787 13.5501 20.6969ZM11.9531 20.6969V22.9911C11.9531 26.2236 14.0872 28.8911 16.9865 30.6665C19.9132 32.4584 23.8557 33.5156 28.1246 33.5156C32.3936 33.5156 36.336 32.4591 39.2635 30.6665C42.1627 28.8911 44.2961 26.2236 44.2961 22.9911V20.7694L44.2969 20.7197C44.2969 17.4871 42.1627 14.8196 39.2635 13.0443C36.3368 11.2517 32.3943 10.1953 28.1253 10.1953C23.8564 10.1953 19.9139 11.2517 16.9865 13.0443C14.0934 14.8155 11.9635 17.4747 11.9538 20.6976L11.9531 20.6969Z" fill="#612F01"/>
<path d="M42.6562 22.9529C42.6562 27.8804 36.1243 31.875 28.0667 31.875C20.0092 31.875 13.4766 27.8804 13.4766 22.9529V20.8594H42.6562V22.9529Z" fill="#FEDC90"/>
<path d="M42.6562 20.7422C42.6562 25.6609 36.1243 29.6484 28.0667 29.6484C20.0092 29.6484 13.4766 25.6609 13.4766 20.7422C13.4766 15.8236 20.0092 11.8359 28.0667 11.8359C36.1243 11.8359 42.6562 15.8236 42.6562 20.7422Z" fill="#D1884F"/>
<path fill-rule="evenodd" clip-rule="evenodd" d="M16.9922 21.2223C16.9922 22.8667 18.1874 24.3394 20.073 25.33L18.7661 27.5922H18.7667H18.7661V33.3169C18.7664 33.6803 18.911 34.0287 19.1681 34.2859C19.4251 34.5428 19.7736 34.6873 20.1372 34.6875C20.5007 34.6873 20.8492 34.5428 21.1063 34.2859C21.3633 34.0287 21.5079 33.6803 21.5082 33.3169V28.7644L22.9138 26.3305C23.8125 26.521 24.7774 26.6242 25.7814 26.6242C30.6356 26.6242 34.5703 24.2056 34.5703 21.2223C34.5703 18.239 30.6356 15.8203 25.7814 15.8203C20.9275 15.8203 16.9922 18.239 16.9922 21.2223Z" fill="url(#paint1_linear_2_145)"/>
<path fill-rule="evenodd" clip-rule="evenodd" d="M20.069 25.3299L19.4686 24.9827C17.9324 24.0092 16.9869 22.6825 16.9869 21.2191C16.9869 18.2336 20.9241 15.8133 25.7813 15.8133C30.6384 15.8133 34.5763 18.2336 34.5763 21.2191C34.5763 24.2045 30.6391 26.6249 25.7813 26.6249C24.8173 26.6269 23.8559 26.5284 22.9124 26.331L21.5059 28.7663V33.3223C21.5055 33.686 21.3609 34.0346 21.1037 34.2917C20.8464 34.5488 20.4977 34.6934 20.1339 34.6939C19.7702 34.6934 19.4214 34.5488 19.1642 34.2917C18.907 34.0346 18.7623 33.686 18.7619 33.3223V27.5936L20.069 25.3299ZM17.3616 27.6176V33.3223C17.3622 34.0571 17.6544 34.7617 18.1742 35.2814C18.694 35.8011 19.3988 36.0932 20.1339 36.0938C20.8691 36.0935 21.5741 35.8014 22.094 35.2816C22.614 34.7619 22.9063 34.0571 22.9068 33.3223V29.1417L23.6363 27.8785C24.347 27.977 25.0638 28.026 25.7813 28.0255C28.4266 28.0255 30.8883 27.3692 32.7336 26.235C34.5571 25.1145 35.9766 23.3807 35.9766 21.2198C35.9766 19.0588 34.5571 17.325 32.7336 16.2045C30.8883 15.0695 28.4266 14.4141 25.7813 14.4141C23.136 14.4141 20.675 15.0702 18.8289 16.2045C17.0062 17.325 15.5859 19.0588 15.5859 21.2198C15.5859 23.1164 16.6729 24.6785 18.1822 25.7968L17.559 26.8768C17.499 26.9773 17.4517 27.0851 17.4182 27.1974C17.378 27.334 17.3589 27.476 17.3616 27.6183V27.6176Z" fill="#633001"/>
<path d="M19.6875 18.9844C19.6875 20.5379 21.6554 21.7969 24.0821 21.7969C26.5089 21.7969 28.4766 20.5379 28.4766 18.9844C28.4766 17.4309 26.5094 16.1719 24.0821 16.1719C21.6547 16.1719 19.6875 17.4309 19.6875 18.9844Z" fill="#9E7200"/>
<path d="M19.6875 17.8125H28.4766V18.9844H19.6875V17.8125Z" fill="#9E7200"/>
<path d="M19.6875 17.8125C19.6875 19.366 21.6553 20.625 24.082 20.625C26.5087 20.625 28.4766 19.366 28.4766 17.8125C28.4766 16.259 26.5094 15 24.082 15C21.6546 15 19.6875 16.259 19.6875 17.8125Z" fill="#F0B90B"/>
<path d="M22.4468 17.465L23.661 16.6522C23.7867 16.5681 23.9327 16.5234 24.0817 16.5234C24.2307 16.5234 24.3765 16.5681 24.5023 16.6522L25.7172 17.465C25.7728 17.5023 25.8183 17.5536 25.8502 17.6144C25.8818 17.6751 25.8984 17.7432 25.8984 17.8125C25.8984 17.8817 25.8818 17.9499 25.8502 18.0106C25.8183 18.0713 25.7728 18.1227 25.7172 18.16L24.5023 18.9728C24.3765 19.0569 24.2307 19.1016 24.0817 19.1016C23.9327 19.1016 23.7867 19.0569 23.661 18.9728L22.4468 18.16C22.3913 18.1227 22.3455 18.0713 22.3139 18.0106C22.2822 17.9499 22.2656 17.8817 22.2656 17.8125C22.2656 17.7432 22.2822 17.6751 22.3139 17.6144C22.3455 17.5536 22.3913 17.5023 22.4468 17.465Z" fill="#9E7200"/>
<path fill-rule="evenodd" clip-rule="evenodd" d="M20.2186 14.6337C21.2722 13.9632 22.6418 13.5938 24.0824 13.5938C25.5229 13.5938 26.8925 13.9632 27.9455 14.6337C28.9824 15.2938 29.8828 16.3787 29.8828 17.7977V18.9992C29.8828 20.4182 28.9824 21.5031 27.9455 22.1632C26.8925 22.8344 25.5224 23.2031 24.0824 23.2031C22.6424 23.2031 21.2722 22.8337 20.2186 22.1632C19.1823 21.5031 18.2812 20.4182 18.2812 18.9992V17.7977C18.2812 16.3787 19.1823 15.2938 20.2186 14.6337ZM24.0824 14.9948C21.6517 14.9948 19.6819 16.2495 19.6819 17.7977V18.9992C19.6819 20.5473 21.6517 21.8021 24.0824 21.8021C26.5131 21.8021 28.483 20.5473 28.483 18.9992V17.7977C28.483 16.2495 26.5124 14.9948 24.0824 14.9948Z" fill="#633001"/>
</g>
<defs>
<linearGradient id="paint0_linear_2_145" x1="7530" y1="1740" x2="7530" y2="6960" gradientUnits="userSpaceOnUse">
<stop stop-color="#54DADE"/>
<stop offset="0.762" stop-color="#24C7D6"/>
</linearGradient>
<linearGradient id="paint1_linear_2_145" x1="2117.02" y1="1001.98" x2="2117.02" y2="1509.45" gradientUnits="userSpaceOnUse">
<stop stop-color="#9F4A08"/>
<stop offset="0.37" stop-color="#7D3900"/>
<stop offset="1" stop-color="#8D4104"/>
</linearGradient>
</defs>
</svg>
