<svg width="60" height="60" viewBox="0 0 60 60" fill="none" xmlns="http://www.w3.org/2000/svg">
<mask id="mask0_9_105" style="mask-type:alpha" maskUnits="userSpaceOnUse" x="0" y="0" width="60" height="60">
<circle cx="30" cy="30" r="30" fill="white"/>
</mask>
<g mask="url(#mask0_9_105)">
<circle cx="30" cy="30" r="30" fill="white"/>
<circle cx="30" cy="30" r="30" fill="#00A0FF"/>
<path fill-rule="evenodd" clip-rule="evenodd" d="M11.9095 32.9796C13.287 33.0505 14.6301 32.5366 15.6051 31.5657L26.0842 21.1375C27.1292 20.0976 28.7008 19.7866 30.0662 20.3495C31.4315 20.9123 32.3218 22.2382 32.3218 23.7089V33.5701L41.0027 24.9312C42.9849 22.9594 45.7239 21.932 48.5207 22.1111L48.5693 22.1142C44.5896 12.8856 34.3503 8.02488 24.6389 10.7542C14.9276 13.4835 8.75582 22.9565 10.2149 32.8935L11.9095 32.9796Z" fill="white"/>
<path opacity="0.5" fill-rule="evenodd" clip-rule="evenodd" d="M48.2071 26.9501C46.8081 26.8593 45.4379 27.3737 44.4475 28.3612L33.6863 39.0724C33.003 39.755 32.0748 40.1388 31.1066 40.1391C29.0872 40.1391 27.4501 38.5099 27.4501 36.5002V26.6362L19.0506 34.9974C17.0989 36.9374 14.4133 37.9647 11.6584 37.8252L11.606 37.8224C15.5637 47.0813 25.8172 51.9727 35.549 49.2443C45.2809 46.5159 51.4608 37.0173 49.9798 27.064L48.2071 26.9501Z" fill="white"/>
</g>
</svg>
